<mxfile host="app.diagrams.net" modified="2022-05-25T08:57:57.473Z" agent="5.0 (Windows NT 10.0; Win64; x64) AppleWebKit/537.36 (KHTML, like Gecko) Chrome/101.0.4951.54 Safari/537.36 Edg/101.0.1210.39" etag="vKEcXQeZ6AyAlo_Oe5lv" version="18.0.3" type="github">
  <diagram id="pCQRFxpyoTq6nAkenusv" name="Page-1">
    <mxGraphModel dx="960" dy="704" grid="1" gridSize="10" guides="1" tooltips="1" connect="1" arrows="1" fold="1" page="1" pageScale="1" pageWidth="827" pageHeight="1169" math="0" shadow="0">
      <root>
        <mxCell id="0" />
        <mxCell id="1" parent="0" />
        <mxCell id="L7ItGJBqRo02B6cRfJcL-1" value="" style="shape=parallelogram;perimeter=parallelogramPerimeter;whiteSpace=wrap;html=1;fixedSize=1;rotation=90;" vertex="1" parent="1">
          <mxGeometry x="110" y="110" width="120" height="60" as="geometry" />
        </mxCell>
        <mxCell id="L7ItGJBqRo02B6cRfJcL-2" value="" style="shape=parallelogram;perimeter=parallelogramPerimeter;whiteSpace=wrap;html=1;fixedSize=1;rotation=90;" vertex="1" parent="1">
          <mxGeometry x="70" y="110" width="120" height="60" as="geometry" />
        </mxCell>
        <mxCell id="L7ItGJBqRo02B6cRfJcL-3" value="" style="shape=parallelogram;perimeter=parallelogramPerimeter;whiteSpace=wrap;html=1;fixedSize=1;rotation=90;" vertex="1" parent="1">
          <mxGeometry x="30" y="110" width="120" height="60" as="geometry" />
        </mxCell>
        <mxCell id="L7ItGJBqRo02B6cRfJcL-4" value="" style="shape=parallelogram;perimeter=parallelogramPerimeter;whiteSpace=wrap;html=1;fixedSize=1;rotation=90;fillColor=#FFD966;" vertex="1" parent="1">
          <mxGeometry x="-10" y="110" width="120" height="60" as="geometry" />
        </mxCell>
        <mxCell id="L7ItGJBqRo02B6cRfJcL-5" value="I" style="text;html=1;resizable=0;autosize=1;align=center;verticalAlign=middle;points=[];fillColor=none;strokeColor=none;rounded=0;fontFamily=Lucida Console;fontSize=16;" vertex="1" parent="1">
          <mxGeometry x="35" y="130" width="30" height="20" as="geometry" />
        </mxCell>
        <mxCell id="L7ItGJBqRo02B6cRfJcL-6" value="P" style="text;html=1;resizable=0;autosize=1;align=center;verticalAlign=middle;points=[];fillColor=none;strokeColor=none;rounded=0;fontFamily=Lucida Console;fontSize=16;" vertex="1" parent="1">
          <mxGeometry x="80" y="130" width="30" height="20" as="geometry" />
        </mxCell>
        <mxCell id="L7ItGJBqRo02B6cRfJcL-7" value="P" style="text;html=1;resizable=0;autosize=1;align=center;verticalAlign=middle;points=[];fillColor=none;strokeColor=none;rounded=0;fontFamily=Lucida Console;fontSize=16;" vertex="1" parent="1">
          <mxGeometry x="120" y="130" width="30" height="20" as="geometry" />
        </mxCell>
        <mxCell id="L7ItGJBqRo02B6cRfJcL-8" value="P" style="text;html=1;resizable=0;autosize=1;align=center;verticalAlign=middle;points=[];fillColor=none;strokeColor=none;rounded=0;fontFamily=Lucida Console;fontSize=16;" vertex="1" parent="1">
          <mxGeometry x="160" y="130" width="30" height="20" as="geometry" />
        </mxCell>
      </root>
    </mxGraphModel>
  </diagram>
</mxfile>
